Coordinates
version=1
nRows=19
nColumns=24
inDegrees=yes

Units are S.I. units (second, meters, Newtons, ...)
Angles are in degrees.

endheader
time	pelvis_tilt	pelvis_list	pelvis_rotation	pelvis_tx	pelvis_ty	pelvis_tz	hip_flexion_r	hip_adduction_r	hip_rotation_r	knee_angle_r	ankle_angle_r	subtalar_angle_r	mtp_angle_r	hip_flexion_l	hip_adduction_l	hip_rotation_l	knee_angle_l	ankle_angle_l	subtalar_angle_l	mtp_angle_l	lumbar_extension	lumbar_bending	lumbar_rotation
      4.07500000	    -11.57721461	      5.43517466	     -4.65209062	      2.39692590	     -0.00365622	     -0.43875411	     33.14924060	     -9.91397337	     -4.21780924	    -53.65520810	     -6.08262289	      5.13445068	     29.48147488	      7.34389251	     11.00651762	     -6.99072943	     -2.52709819	     -4.14424420	      7.13721995	     10.19910808	     11.63350836	     -6.21341000	     -2.07876678
      4.08000000	    -11.55310435	      5.26825643	     -4.35206383	      2.40213970	     -0.00377558	     -0.43945934	     33.39853907	     -9.76829832	     -4.57249490	    -52.69784310	     -5.80797384	      4.81909117	     28.82475531	      6.88756409	     10.93966891	     -6.62382940	     -2.41624988	     -3.91344835	      7.19325990	     10.03569287	     11.53985632	     -6.09878740	     -2.38229041
      4.08500000	    -11.58914588	      5.09547572	     -4.11766485	      2.40733694	     -0.00397854	     -0.44007638	     33.71108739	     -9.55979843	     -4.84965373	    -51.69222214	     -5.56138637	      4.51849584	     28.20572007	      6.51328976	     10.84504184	     -6.32398396	     -2.32121750	     -3.67534034	      7.22430133	      9.90677713	     11.51874161	     -5.95020980	     -2.56218561
      4.09000000	    -11.57486980	      4.92673775	     -3.87372900	      2.41249841	     -0.00418303	     -0.44071660	     33.95041744	     -9.37349953	     -5.14243388	    -50.66750681	     -5.22924559	      4.38330906	     27.32360456	      6.09815305	     10.75776945	     -6.00376434	     -2.25582752	     -3.39103699	      7.25398960	      9.71568070	     11.43458966	     -5.80852620	     -2.73134268
      4.09500000	    -11.61633083	      4.77676598	     -3.64189096	      2.41765196	     -0.00444201	     -0.44129914	     34.24377040	     -9.18251045	     -5.40945014	    -49.59866802	     -4.97693141	      4.17332046	     26.56603065	      5.75025215	     10.67786241	     -5.75278511	     -2.18173697	     -3.16292926	      7.31932386	      9.61299259	     11.41795792	     -5.68364394	     -2.92328883
      4.10000000	    -11.65823442	      4.63204803	     -3.41019861	      2.42276701	     -0.00472165	     -0.44185542	     34.52383210	     -8.99426311	     -5.68276646	    -48.48768352	     -4.76818822	      3.92607810	     25.92013339	      5.41423781	     10.59757319	     -5.51421443	     -2.11955204	     -2.94707467	      7.39384529	      9.55831543	     11.39713052	     -5.56674391	     -3.10329349
      4.10500000	    -11.77244221	      4.49717331	     -3.22758141	      2.42787094	     -0.00508604	     -0.44237121	     34.87933738	     -8.77545155	     -5.88861013	    -47.31844158	     -4.66051189	      3.65439882	     25.61117434	      5.16752390	     10.51616423	     -5.34545524	     -2.05765204	     -2.76938960	      7.43872175	      9.57336220	     11.46181799	     -5.43425169	     -3.21477058
      4.11000000	    -11.71654056	      4.33790857	     -2.94872942	      2.43295226	     -0.00528558	     -0.44293750	     34.99419728	     -8.61080249	     -6.23880785	    -46.14344657	     -4.38806578	      3.52745770	     24.62878917	      4.73575952	     10.42110216	     -5.06691541	     -2.02664997	     -2.52019678	      7.56901452	      9.49002099	     11.31829405	     -5.32984794	     -3.47045375
      4.11500000	    -11.85962411	      4.21675251	     -2.78233125	      2.43802137	     -0.00571463	     -0.44339310	     35.35400984	     -8.38902959	     -6.43013750	    -44.90864422	     -4.32868388	      3.29828649	     24.32139591	      4.54030726	     10.34236696	     -4.91757520	     -1.99340211	     -2.35302799	      7.60765274	      9.52376107	     11.41416111	     -5.20953724	     -3.56023907
      4.12000000	    -11.82675688	      4.05776118	     -2.51919598	      2.44311772	     -0.00594112	     -0.44393076	     35.45692487	     -8.21065643	     -6.77087558	    -43.66610706	     -4.09049852	      3.27847607	     23.21083936	      4.14168374	     10.23781711	     -4.70161565	     -1.96718486	     -2.13799486	      7.76268165	      9.49186135	     11.30099649	     -5.09514033	     -3.79834594
      4.12500000	    -11.97259151	      3.94796753	     -2.32433810	      2.44812753	     -0.00640933	     -0.44434602	     35.78102341	     -8.00825210	     -6.99336961	    -42.37144320	     -4.05404251	      3.05507078	     22.86576465	      3.97238198	     10.16383950	     -4.53878379	     -1.97353369	     -1.96222960	      7.81881361	      9.54911386	     11.38649981	     -5.00365169	     -3.92266267
      4.13000000	    -11.98949705	      3.80029483	     -2.11891686	      2.45316482	     -0.00671341	     -0.44476484	     35.91748770	     -7.78414827	     -7.22742005	    -41.05303874	     -3.90308841	      3.12225057	     21.90204298	      3.65190984	     10.04740556	     -4.35412034	     -1.97401437	     -1.75702970	      7.97498656	      9.59166012	     11.32598537	     -4.88365317	     -4.06644458
      4.13500000	    -12.13687417	      3.67855650	     -1.92107470	      2.45818680	     -0.00717866	     -0.44518361	     36.18773594	     -7.57252245	     -7.44713782	    -39.67059344	     -3.92262567	      3.04926383	     21.63852366	      3.49669370	      9.95472423	     -4.19701069	     -2.00453664	     -1.58414436	      8.04934546	      9.66312479	     11.41307157	     -4.77974134	     -4.21564996
      4.14000000	    -12.23898536	      3.53721061	     -1.71513960	      2.46320754	     -0.00757668	     -0.44559802	     36.37271712	     -7.34574726	     -7.66655418	    -38.24304577	     -3.95629069	      3.06694673	     21.30759745	      3.29285065	      9.83584596	     -4.02649554	     -2.03886096	     -1.40014896	      8.17841739	      9.74577563	     11.44473181	     -4.66095338	     -4.36989895
      4.14500000	    -12.31753008	      3.38885813	     -1.51510780	      2.46822632	     -0.00796254	     -0.44598300	     36.50435143	     -7.10147500	     -7.85844733	    -36.77937129	     -3.97177195	      3.15504507	     20.91941209	      3.07442559	      9.70361188	     -3.87408147	     -2.09312965	     -1.19639643	      8.33853758	      9.84839089	     11.45020307	     -4.53621982	     -4.53449299
      4.15000000	    -12.41469595	      3.24616223	     -1.33904644	      2.47324970	     -0.00836453	     -0.44634912	     36.64271501	     -6.84881277	     -8.02200084	    -35.28918533	     -4.02695889	      3.32300062	     20.55332569	      2.88090977	      9.57205166	     -3.75091447	     -2.14903234	     -1.00888155	      8.50281170	      9.95656303	     11.47685533	     -4.40718251	     -4.65754430
      4.15500000	    -12.49318647	      3.10031166	     -1.17737708	      2.47824617	     -0.00874402	     -0.44672064	     36.74366183	     -6.58452077	     -8.15340189	    -33.77293915	     -4.09535844	      3.58315200	     20.15724922	      2.67975002	      9.43406968	     -3.66855755	     -2.22105810	     -0.81785201	      8.70519181	     10.09003750	     11.47870986	     -4.26720545	     -4.77899500
      4.16000000	    -12.63593307	      2.96528433	     -1.01587252	      2.48331619	     -0.00920360	     -0.44705121	     36.89277203	     -6.31820802	     -8.25926690	    -32.22864012	     -4.17881585	      3.81193593	     19.91138786	      2.53892183	      9.29834148	     -3.54015506	     -2.28047449	     -0.64943816	      8.87910693	     10.20905977	     11.56560393	     -4.14057033	     -4.87120797
      4.16500000	    -12.79398049	      2.84660115	     -0.89727484	      2.48836672	     -0.00970134	     -0.44741054	     37.05756492	     -6.04678388	     -8.29425727	    -30.67217301	     -4.28170306	      4.13835165	     19.76084460	      2.42394110	      9.18463804	     -3.46094239	     -2.34688690	     -0.49291527	      8.98870816	     10.30531018	     11.66799580	     -4.00354466	     -4.90286136
